<svg xmlns="http://www.w3.org/2000/svg" viewBox="7 0 25 25" shape-rendering="crispEdges"><path fill="#ff5a1f" d="M10 0h19v1h-19zM9 1h21v1h-21zM8 2h2v1h-2zM29 2h2v1h-2zM8 3h2v1h-2zM29 3h2v1h-2zM8 4h2v1h-2zM12 4h1v1h-1zM29 4h2v1h-2zM8 5h2v1h-2zM12 5h2v1h-2zM29 5h2v1h-2zM8 6h2v1h-2zM13 6h2v1h-2zM29 6h2v1h-2zM8 7h2v1h-2zM14 7h2v1h-2zM29 7h2v1h-2zM8 8h2v1h-2zM14 8h2v1h-2zM29 8h2v1h-2zM8 9h2v1h-2zM13 9h2v1h-2zM29 9h2v1h-2zM8 10h2v1h-2zM12 10h2v1h-2zM29 10h2v1h-2zM8 11h2v1h-2zM12 11h1v1h-1zM19 11h6v1h-6zM29 11h2v1h-2zM8 12h2v1h-2zM19 12h6v1h-6zM29 12h2v1h-2zM8 13h2v1h-2zM29 13h2v1h-2zM8 14h2v1h-2zM29 14h2v1h-2zM9 15h21v1h-21zM10 16h19v1h-19zM16 17h8v1h-8zM16 18h6v1h-6zM16 19h4v1h-4zM17 20h2v1h-2zM17 21h2v1h-2zM17 22h1v1h-1z"/></svg>