<svg xmlns="http://www.w3.org/2000/svg" viewBox="0 0 282 170" shape-rendering="crispEdges"><path fill="currentColor" d="M75 0h57v1h-57zM75 1h57v1h-57zM75 2h57v1h-57zM72 3h63v1h-63zM72 4h63v1h-63zM72 5h63v1h-63zM69 6h6v1h-6zM132 6h6v1h-6zM69 7h6v1h-6zM132 7h6v1h-6zM69 8h6v1h-6zM132 8h6v1h-6zM69 9h6v1h-6zM132 9h6v1h-6zM69 10h6v1h-6zM132 10h6v1h-6zM69 11h6v1h-6zM132 11h6v1h-6zM69 12h6v1h-6zM81 12h3v1h-3zM132 12h6v1h-6zM69 13h6v1h-6zM81 13h3v1h-3zM132 13h6v1h-6zM69 14h6v1h-6zM81 14h3v1h-3zM132 14h6v1h-6zM69 15h6v1h-6zM81 15h6v1h-6zM132 15h6v1h-6zM69 16h6v1h-6zM81 16h6v1h-6zM132 16h6v1h-6zM69 17h6v1h-6zM81 17h6v1h-6zM132 17h6v1h-6zM69 18h6v1h-6zM84 18h6v1h-6zM132 18h6v1h-6zM69 19h6v1h-6zM84 19h6v1h-6zM132 19h6v1h-6zM69 20h6v1h-6zM84 20h6v1h-6zM132 20h6v1h-6zM69 21h6v1h-6zM87 21h6v1h-6zM132 21h6v1h-6zM69 22h6v1h-6zM87 22h6v1h-6zM132 22h6v1h-6zM69 23h6v1h-6zM87 23h6v1h-6zM132 23h6v1h-6zM69 24h6v1h-6zM87 24h6v1h-6zM132 24h6v1h-6zM69 25h6v1h-6zM87 25h6v1h-6zM132 25h6v1h-6zM69 26h6v1h-6zM87 26h6v1h-6zM132 26h6v1h-6zM69 27h6v1h-6zM84 27h6v1h-6zM132 27h6v1h-6zM69 28h6v1h-6zM84 28h6v1h-6zM132 28h6v1h-6zM69 29h6v1h-6zM84 29h6v1h-6zM132 29h6v1h-6zM69 30h6v1h-6zM81 30h6v1h-6zM132 30h6v1h-6zM69 31h6v1h-6zM81 31h6v1h-6zM132 31h6v1h-6zM69 32h6v1h-6zM81 32h6v1h-6zM132 32h6v1h-6zM69 33h6v1h-6zM81 33h3v1h-3zM102 33h18v1h-18zM132 33h6v1h-6zM69 34h6v1h-6zM81 34h3v1h-3zM102 34h18v1h-18zM132 34h6v1h-6zM69 35h6v1h-6zM81 35h3v1h-3zM102 35h18v1h-18zM132 35h6v1h-6zM69 36h6v1h-6zM102 36h18v1h-18zM132 36h6v1h-6zM69 37h6v1h-6zM102 37h18v1h-18zM132 37h6v1h-6zM69 38h6v1h-6zM102 38h18v1h-18zM132 38h6v1h-6zM69 39h6v1h-6zM132 39h6v1h-6zM69 40h6v1h-6zM132 40h6v1h-6zM69 41h6v1h-6zM132 41h6v1h-6zM69 42h6v1h-6zM132 42h6v1h-6zM69 43h6v1h-6zM132 43h6v1h-6zM69 44h6v1h-6zM132 44h6v1h-6zM72 45h63v1h-63zM72 46h63v1h-63zM72 47h63v1h-63zM75 48h57v1h-57zM75 49h57v1h-57zM75 50h57v1h-57zM93 51h24v1h-24zM93 52h24v1h-24zM93 53h24v1h-24zM93 54h18v1h-18zM93 55h18v1h-18zM93 56h18v1h-18zM93 57h12v1h-12zM93 58h12v1h-12zM93 59h12v1h-12zM96 60h6v1h-6zM108 60h57v1h-57zM96 61h6v1h-6zM108 61h57v1h-57zM96 62h6v1h-6zM108 62h57v1h-57zM96 63h6v1h-6zM105 63h3v1h-3zM165 63h3v1h-3zM96 64h6v1h-6zM105 64h3v1h-3zM165 64h3v1h-3zM96 65h6v1h-6zM105 65h3v1h-3zM165 65h3v1h-3zM96 66h3v1h-3zM102 66h3v1h-3zM168 66h3v1h-3zM96 67h3v1h-3zM102 67h3v1h-3zM168 67h3v1h-3zM96 68h3v1h-3zM102 68h3v1h-3zM168 68h3v1h-3zM99 69h3v1h-3zM171 69h3v1h-3zM99 70h3v1h-3zM171 70h3v1h-3zM99 71h3v1h-3zM171 71h3v1h-3zM93 72h6v1h-6zM114 72h30v1h-30zM174 72h3v1h-3zM93 73h6v1h-6zM114 73h30v1h-30zM174 73h3v1h-3zM93 74h6v1h-6zM114 74h30v1h-30zM174 74h3v1h-3zM93 75h3v1h-3zM114 75h30v1h-30zM147 75h12v1h-12zM177 75h3v1h-3zM93 76h3v1h-3zM114 76h30v1h-30zM147 76h12v1h-12zM177 76h3v1h-3zM93 77h3v1h-3zM114 77h30v1h-30zM147 77h12v1h-12zM177 77h3v1h-3zM90 78h3v1h-3zM180 78h9v1h-9zM90 79h3v1h-3zM180 79h9v1h-9zM90 80h3v1h-3zM180 80h9v1h-9zM87 81h3v1h-3zM93 81h3v1h-3zM114 81h30v1h-30zM147 81h15v1h-15zM189 81h3v1h-3zM87 82h3v1h-3zM93 82h3v1h-3zM114 82h30v1h-30zM147 82h15v1h-15zM189 82h3v1h-3zM87 83h3v1h-3zM93 83h3v1h-3zM114 83h30v1h-30zM147 83h15v1h-15zM189 83h3v1h-3zM84 84h3v1h-3zM114 84h30v1h-30zM147 84h15v1h-15zM192 84h18v1h-18zM84 85h3v1h-3zM114 85h30v1h-30zM147 85h15v1h-15zM192 85h18v1h-18zM84 86h3v1h-3zM114 86h30v1h-30zM147 86h15v1h-15zM192 86h18v1h-18zM81 87h3v1h-3zM210 87h3v1h-3zM81 88h3v1h-3zM210 88h3v1h-3zM81 89h3v1h-3zM210 89h3v1h-3zM81 90h3v1h-3zM93 90h3v1h-3zM114 90h18v1h-18zM198 90h3v1h-3zM210 90h3v1h-3zM81 91h3v1h-3zM93 91h3v1h-3zM114 91h18v1h-18zM198 91h3v1h-3zM210 91h3v1h-3zM81 92h3v1h-3zM93 92h3v1h-3zM114 92h18v1h-18zM198 92h3v1h-3zM210 92h3v1h-3zM81 93h3v1h-3zM114 93h18v1h-18zM198 93h6v1h-6zM210 93h3v1h-3zM81 94h3v1h-3zM114 94h18v1h-18zM198 94h6v1h-6zM210 94h3v1h-3zM81 95h3v1h-3zM114 95h18v1h-18zM198 95h6v1h-6zM210 95h3v1h-3zM81 96h3v1h-3zM93 96h15v1h-15zM174 96h15v1h-15zM210 96h3v1h-3zM81 97h3v1h-3zM93 97h15v1h-15zM174 97h15v1h-15zM210 97h3v1h-3zM81 98h3v1h-3zM93 98h15v1h-15zM174 98h15v1h-15zM210 98h3v1h-3zM81 99h3v1h-3zM90 99h21v1h-21zM171 99h21v1h-21zM207 99h3v1h-3zM81 100h3v1h-3zM90 100h21v1h-21zM171 100h21v1h-21zM207 100h3v1h-3zM81 101h3v1h-3zM90 101h21v1h-21zM171 101h21v1h-21zM207 101h3v1h-3zM81 102h3v1h-3zM90 102h6v1h-6zM105 102h6v1h-6zM171 102h6v1h-6zM186 102h21v1h-21zM81 103h3v1h-3zM90 103h6v1h-6zM105 103h6v1h-6zM171 103h6v1h-6zM186 103h21v1h-21zM81 104h3v1h-3zM90 104h6v1h-6zM105 104h6v1h-6zM171 104h6v1h-6zM186 104h21v1h-21zM81 105h15v1h-15zM105 105h72v1h-72zM186 105h6v1h-6zM81 106h15v1h-15zM105 106h72v1h-72zM186 106h6v1h-6zM81 107h15v1h-15zM105 107h72v1h-72zM186 107h6v1h-6zM90 108h6v1h-6zM105 108h6v1h-6zM171 108h6v1h-6zM186 108h6v1h-6zM90 109h6v1h-6zM105 109h6v1h-6zM171 109h6v1h-6zM186 109h6v1h-6zM90 110h6v1h-6zM105 110h6v1h-6zM171 110h6v1h-6zM186 110h6v1h-6zM90 111h21v1h-21zM171 111h21v1h-21zM90 112h21v1h-21zM171 112h21v1h-21zM90 113h21v1h-21zM171 113h21v1h-21zM93 114h15v1h-15zM174 114h15v1h-15zM93 115h15v1h-15zM174 115h15v1h-15zM93 116h15v1h-15zM174 116h15v1h-15zM0 128h6v1h-6zM12 128h6v1h-6zM22 128h18v1h-18zM46 128h16v1h-16zM68 128h16v1h-16zM88 128h18v1h-18zM110 128h4v1h-4zM124 128h4v1h-4zM134 128h16v1h-16zM154 128h18v1h-18zM176 128h18v1h-18zM198 128h18v1h-18zM242 128h18v1h-18zM266 128h10v1h-10zM0 129h6v1h-6zM12 129h6v1h-6zM22 129h18v1h-18zM46 129h16v1h-16zM68 129h16v1h-16zM88 129h18v1h-18zM110 129h4v1h-4zM124 129h4v1h-4zM134 129h16v1h-16zM154 129h18v1h-18zM176 129h18v1h-18zM198 129h18v1h-18zM242 129h18v1h-18zM266 129h10v1h-10zM0 130h6v1h-6zM12 130h6v1h-6zM22 130h18v1h-18zM46 130h16v1h-16zM68 130h16v1h-16zM88 130h18v1h-18zM110 130h4v1h-4zM124 130h4v1h-4zM134 130h16v1h-16zM154 130h18v1h-18zM176 130h18v1h-18zM198 130h18v1h-18zM242 130h18v1h-18zM266 130h10v1h-10zM0 131h6v1h-6zM12 131h6v1h-6zM22 131h18v1h-18zM46 131h16v1h-16zM68 131h16v1h-16zM88 131h18v1h-18zM110 131h4v1h-4zM124 131h4v1h-4zM134 131h16v1h-16zM154 131h18v1h-18zM176 131h18v1h-18zM198 131h18v1h-18zM242 131h18v1h-18zM266 131h10v1h-10zM0 132h6v1h-6zM12 132h6v1h-6zM22 132h18v1h-18zM46 132h16v1h-16zM68 132h16v1h-16zM88 132h18v1h-18zM110 132h4v1h-4zM124 132h4v1h-4zM134 132h16v1h-16zM154 132h18v1h-18zM176 132h18v1h-18zM198 132h18v1h-18zM242 132h18v1h-18zM266 132h10v1h-10zM0 133h6v1h-6zM12 133h6v1h-6zM22 133h18v1h-18zM46 133h16v1h-16zM68 133h16v1h-16zM88 133h18v1h-18zM110 133h4v1h-4zM124 133h4v1h-4zM134 133h16v1h-16zM154 133h18v1h-18zM176 133h18v1h-18zM198 133h18v1h-18zM242 133h18v1h-18zM266 133h10v1h-10zM0 134h6v1h-6zM12 134h6v1h-6zM22 134h6v1h-6zM56 134h6v1h-6zM78 134h6v1h-6zM88 134h6v1h-6zM100 134h6v1h-6zM110 134h4v1h-4zM124 134h4v1h-4zM144 134h6v1h-6zM154 134h6v1h-6zM166 134h6v1h-6zM176 134h6v1h-6zM188 134h6v1h-6zM198 134h6v1h-6zM210 134h6v1h-6zM242 134h6v1h-6zM254 134h6v1h-6zM270 134h6v1h-6zM0 135h6v1h-6zM12 135h6v1h-6zM22 135h6v1h-6zM56 135h6v1h-6zM78 135h6v1h-6zM88 135h6v1h-6zM100 135h6v1h-6zM110 135h4v1h-4zM124 135h4v1h-4zM144 135h6v1h-6zM154 135h6v1h-6zM166 135h6v1h-6zM176 135h6v1h-6zM188 135h6v1h-6zM198 135h6v1h-6zM210 135h6v1h-6zM242 135h6v1h-6zM254 135h6v1h-6zM270 135h6v1h-6zM0 136h6v1h-6zM12 136h6v1h-6zM22 136h6v1h-6zM56 136h6v1h-6zM78 136h6v1h-6zM88 136h6v1h-6zM100 136h6v1h-6zM110 136h4v1h-4zM118 136h2v1h-2zM124 136h4v1h-4zM144 136h6v1h-6zM154 136h6v1h-6zM166 136h6v1h-6zM176 136h6v1h-6zM188 136h6v1h-6zM198 136h6v1h-6zM210 136h6v1h-6zM242 136h6v1h-6zM254 136h6v1h-6zM270 136h6v1h-6zM0 137h6v1h-6zM12 137h6v1h-6zM22 137h6v1h-6zM56 137h6v1h-6zM78 137h6v1h-6zM88 137h6v1h-6zM100 137h6v1h-6zM110 137h4v1h-4zM118 137h2v1h-2zM124 137h4v1h-4zM144 137h6v1h-6zM154 137h6v1h-6zM166 137h6v1h-6zM176 137h6v1h-6zM188 137h6v1h-6zM198 137h6v1h-6zM210 137h6v1h-6zM242 137h6v1h-6zM254 137h6v1h-6zM270 137h6v1h-6zM0 138h6v1h-6zM12 138h6v1h-6zM22 138h6v1h-6zM44 138h18v1h-18zM66 138h18v1h-18zM88 138h18v1h-18zM110 138h4v1h-4zM118 138h2v1h-2zM124 138h4v1h-4zM132 138h18v1h-18zM154 138h18v1h-18zM176 138h18v1h-18zM198 138h6v1h-6zM210 138h6v1h-6zM242 138h6v1h-6zM254 138h6v1h-6zM270 138h6v1h-6zM0 139h6v1h-6zM12 139h6v1h-6zM22 139h6v1h-6zM44 139h18v1h-18zM66 139h18v1h-18zM88 139h18v1h-18zM110 139h4v1h-4zM118 139h2v1h-2zM124 139h4v1h-4zM132 139h18v1h-18zM154 139h18v1h-18zM176 139h18v1h-18zM198 139h6v1h-6zM210 139h6v1h-6zM242 139h6v1h-6zM254 139h6v1h-6zM270 139h6v1h-6zM2 140h6v1h-6zM10 140h6v1h-6zM22 140h6v1h-6zM44 140h18v1h-18zM66 140h18v1h-18zM88 140h18v1h-18zM110 140h4v1h-4zM118 140h2v1h-2zM124 140h4v1h-4zM132 140h18v1h-18zM154 140h18v1h-18zM176 140h18v1h-18zM198 140h6v1h-6zM210 140h6v1h-6zM242 140h6v1h-6zM254 140h6v1h-6zM270 140h6v1h-6zM2 141h6v1h-6zM10 141h6v1h-6zM22 141h6v1h-6zM44 141h18v1h-18zM66 141h18v1h-18zM88 141h18v1h-18zM110 141h4v1h-4zM118 141h2v1h-2zM124 141h4v1h-4zM132 141h18v1h-18zM154 141h18v1h-18zM176 141h18v1h-18zM198 141h6v1h-6zM210 141h6v1h-6zM242 141h6v1h-6zM254 141h6v1h-6zM270 141h6v1h-6zM2 142h6v1h-6zM10 142h6v1h-6zM22 142h6v1h-6zM44 142h18v1h-18zM66 142h18v1h-18zM88 142h18v1h-18zM110 142h4v1h-4zM118 142h2v1h-2zM124 142h4v1h-4zM132 142h18v1h-18zM154 142h18v1h-18zM176 142h18v1h-18zM198 142h6v1h-6zM210 142h6v1h-6zM242 142h6v1h-6zM254 142h6v1h-6zM270 142h6v1h-6zM2 143h6v1h-6zM10 143h6v1h-6zM22 143h6v1h-6zM44 143h18v1h-18zM66 143h18v1h-18zM88 143h18v1h-18zM110 143h4v1h-4zM118 143h2v1h-2zM124 143h4v1h-4zM132 143h18v1h-18zM154 143h18v1h-18zM176 143h18v1h-18zM198 143h6v1h-6zM210 143h6v1h-6zM242 143h6v1h-6zM254 143h6v1h-6zM270 143h6v1h-6zM4 144h10v1h-10zM22 144h6v1h-6zM44 144h6v1h-6zM56 144h6v1h-6zM66 144h6v1h-6zM78 144h6v1h-6zM100 144h6v1h-6zM110 144h4v1h-4zM118 144h2v1h-2zM124 144h4v1h-4zM132 144h6v1h-6zM144 144h6v1h-6zM166 144h6v1h-6zM176 144h6v1h-6zM198 144h6v1h-6zM210 144h6v1h-6zM242 144h6v1h-6zM254 144h6v1h-6zM270 144h6v1h-6zM4 145h10v1h-10zM22 145h6v1h-6zM44 145h6v1h-6zM56 145h6v1h-6zM66 145h6v1h-6zM78 145h6v1h-6zM100 145h6v1h-6zM110 145h4v1h-4zM118 145h2v1h-2zM124 145h4v1h-4zM132 145h6v1h-6zM144 145h6v1h-6zM166 145h6v1h-6zM176 145h6v1h-6zM198 145h6v1h-6zM210 145h6v1h-6zM242 145h6v1h-6zM254 145h6v1h-6zM270 145h6v1h-6zM4 146h10v1h-10zM22 146h6v1h-6zM44 146h6v1h-6zM56 146h6v1h-6zM66 146h6v1h-6zM78 146h6v1h-6zM100 146h6v1h-6zM110 146h4v1h-4zM118 146h2v1h-2zM124 146h4v1h-4zM132 146h6v1h-6zM144 146h6v1h-6zM166 146h6v1h-6zM176 146h6v1h-6zM198 146h6v1h-6zM210 146h6v1h-6zM226 146h6v1h-6zM242 146h6v1h-6zM254 146h6v1h-6zM270 146h6v1h-6zM4 147h10v1h-10zM22 147h6v1h-6zM44 147h6v1h-6zM56 147h6v1h-6zM66 147h6v1h-6zM78 147h6v1h-6zM100 147h6v1h-6zM110 147h4v1h-4zM118 147h2v1h-2zM124 147h4v1h-4zM132 147h6v1h-6zM144 147h6v1h-6zM166 147h6v1h-6zM176 147h6v1h-6zM198 147h6v1h-6zM210 147h6v1h-6zM226 147h6v1h-6zM242 147h6v1h-6zM254 147h6v1h-6zM270 147h6v1h-6zM6 148h6v1h-6zM22 148h6v1h-6zM44 148h18v1h-18zM66 148h18v1h-18zM88 148h18v1h-18zM110 148h18v1h-18zM132 148h18v1h-18zM154 148h18v1h-18zM176 148h18v1h-18zM198 148h6v1h-6zM210 148h6v1h-6zM226 148h6v1h-6zM242 148h6v1h-6zM254 148h6v1h-6zM264 148h18v1h-18zM6 149h6v1h-6zM22 149h6v1h-6zM44 149h18v1h-18zM66 149h18v1h-18zM88 149h18v1h-18zM110 149h18v1h-18zM132 149h18v1h-18zM154 149h18v1h-18zM176 149h18v1h-18zM198 149h6v1h-6zM210 149h6v1h-6zM226 149h6v1h-6zM242 149h6v1h-6zM254 149h6v1h-6zM264 149h18v1h-18zM6 150h6v1h-6zM22 150h6v1h-6zM44 150h18v1h-18zM66 150h18v1h-18zM88 150h18v1h-18zM110 150h18v1h-18zM132 150h18v1h-18zM154 150h18v1h-18zM176 150h18v1h-18zM198 150h6v1h-6zM210 150h6v1h-6zM226 150h6v1h-6zM242 150h6v1h-6zM254 150h6v1h-6zM264 150h18v1h-18zM6 151h6v1h-6zM22 151h6v1h-6zM44 151h18v1h-18zM66 151h18v1h-18zM88 151h18v1h-18zM110 151h18v1h-18zM132 151h18v1h-18zM154 151h18v1h-18zM176 151h18v1h-18zM198 151h6v1h-6zM210 151h6v1h-6zM226 151h6v1h-6zM242 151h6v1h-6zM254 151h6v1h-6zM264 151h18v1h-18zM30 160h2v1h-2zM42 160h2v1h-2zM46 160h2v1h-2zM50 160h4v1h-4zM58 160h6v1h-6zM66 160h6v1h-6zM74 160h6v1h-6zM90 160h2v1h-2zM94 160h2v1h-2zM98 160h6v1h-6zM106 160h6v1h-6zM122 160h6v1h-6zM130 160h6v1h-6zM138 160h2v1h-2zM142 160h2v1h-2zM154 160h4v1h-4zM162 160h6v1h-6zM178 160h4v1h-4zM186 160h4v1h-4zM194 160h2v1h-2zM198 160h2v1h-2zM210 160h4v1h-4zM218 160h6v1h-6zM226 160h6v1h-6zM234 160h6v1h-6zM250 160h2v1h-2zM30 161h2v1h-2zM42 161h2v1h-2zM46 161h2v1h-2zM50 161h4v1h-4zM58 161h6v1h-6zM66 161h6v1h-6zM74 161h6v1h-6zM90 161h2v1h-2zM94 161h2v1h-2zM98 161h6v1h-6zM106 161h6v1h-6zM122 161h6v1h-6zM130 161h6v1h-6zM138 161h2v1h-2zM142 161h2v1h-2zM154 161h4v1h-4zM162 161h6v1h-6zM178 161h4v1h-4zM186 161h4v1h-4zM194 161h2v1h-2zM198 161h2v1h-2zM210 161h4v1h-4zM218 161h6v1h-6zM226 161h6v1h-6zM234 161h6v1h-6zM250 161h2v1h-2zM28 162h2v1h-2zM42 162h2v1h-2zM46 162h2v1h-2zM50 162h2v1h-2zM54 162h2v1h-2zM58 162h2v1h-2zM62 162h2v1h-2zM66 162h2v1h-2zM70 162h2v1h-2zM74 162h2v1h-2zM90 162h2v1h-2zM94 162h2v1h-2zM98 162h2v1h-2zM108 162h2v1h-2zM122 162h2v1h-2zM126 162h2v1h-2zM130 162h2v1h-2zM134 162h2v1h-2zM138 162h6v1h-6zM154 162h2v1h-2zM158 162h2v1h-2zM162 162h2v1h-2zM178 162h2v1h-2zM182 162h2v1h-2zM186 162h2v1h-2zM190 162h2v1h-2zM194 162h2v1h-2zM198 162h2v1h-2zM210 162h2v1h-2zM214 162h2v1h-2zM218 162h2v1h-2zM222 162h2v1h-2zM228 162h2v1h-2zM234 162h2v1h-2zM238 162h2v1h-2zM252 162h2v1h-2zM28 163h2v1h-2zM42 163h2v1h-2zM46 163h2v1h-2zM50 163h2v1h-2zM54 163h2v1h-2zM58 163h2v1h-2zM62 163h2v1h-2zM66 163h2v1h-2zM70 163h2v1h-2zM74 163h2v1h-2zM90 163h2v1h-2zM94 163h2v1h-2zM98 163h2v1h-2zM108 163h2v1h-2zM122 163h2v1h-2zM126 163h2v1h-2zM130 163h2v1h-2zM134 163h2v1h-2zM138 163h6v1h-6zM154 163h2v1h-2zM158 163h2v1h-2zM162 163h2v1h-2zM178 163h2v1h-2zM182 163h2v1h-2zM186 163h2v1h-2zM190 163h2v1h-2zM194 163h2v1h-2zM198 163h2v1h-2zM210 163h2v1h-2zM214 163h2v1h-2zM218 163h2v1h-2zM222 163h2v1h-2zM228 163h2v1h-2zM234 163h2v1h-2zM238 163h2v1h-2zM252 163h2v1h-2zM26 164h2v1h-2zM42 164h2v1h-2zM46 164h2v1h-2zM50 164h4v1h-4zM58 164h6v1h-6zM66 164h6v1h-6zM74 164h2v1h-2zM78 164h2v1h-2zM90 164h6v1h-6zM98 164h6v1h-6zM108 164h2v1h-2zM122 164h6v1h-6zM130 164h6v1h-6zM138 164h2v1h-2zM142 164h2v1h-2zM154 164h2v1h-2zM158 164h2v1h-2zM162 164h6v1h-6zM178 164h4v1h-4zM186 164h2v1h-2zM190 164h2v1h-2zM194 164h2v1h-2zM198 164h2v1h-2zM202 164h6v1h-6zM210 164h2v1h-2zM214 164h2v1h-2zM218 164h6v1h-6zM228 164h2v1h-2zM234 164h6v1h-6zM254 164h2v1h-2zM26 165h2v1h-2zM42 165h2v1h-2zM46 165h2v1h-2zM50 165h4v1h-4zM58 165h6v1h-6zM66 165h6v1h-6zM74 165h2v1h-2zM78 165h2v1h-2zM90 165h6v1h-6zM98 165h6v1h-6zM108 165h2v1h-2zM122 165h6v1h-6zM130 165h6v1h-6zM138 165h2v1h-2zM142 165h2v1h-2zM154 165h2v1h-2zM158 165h2v1h-2zM162 165h6v1h-6zM178 165h4v1h-4zM186 165h2v1h-2zM190 165h2v1h-2zM194 165h2v1h-2zM198 165h2v1h-2zM202 165h6v1h-6zM210 165h2v1h-2zM214 165h2v1h-2zM218 165h6v1h-6zM228 165h2v1h-2zM234 165h6v1h-6zM254 165h2v1h-2zM28 166h2v1h-2zM42 166h2v1h-2zM46 166h2v1h-2zM50 166h2v1h-2zM54 166h2v1h-2zM58 166h2v1h-2zM62 166h2v1h-2zM66 166h2v1h-2zM70 166h2v1h-2zM74 166h2v1h-2zM78 166h2v1h-2zM90 166h2v1h-2zM94 166h2v1h-2zM98 166h2v1h-2zM108 166h2v1h-2zM122 166h2v1h-2zM126 166h2v1h-2zM130 166h2v1h-2zM134 166h2v1h-2zM138 166h2v1h-2zM142 166h2v1h-2zM154 166h2v1h-2zM158 166h2v1h-2zM162 166h2v1h-2zM178 166h2v1h-2zM182 166h2v1h-2zM186 166h2v1h-2zM190 166h2v1h-2zM194 166h6v1h-6zM210 166h2v1h-2zM214 166h2v1h-2zM218 166h2v1h-2zM222 166h2v1h-2zM228 166h2v1h-2zM234 166h2v1h-2zM238 166h2v1h-2zM252 166h2v1h-2zM28 167h2v1h-2zM42 167h2v1h-2zM46 167h2v1h-2zM50 167h2v1h-2zM54 167h2v1h-2zM58 167h2v1h-2zM62 167h2v1h-2zM66 167h2v1h-2zM70 167h2v1h-2zM74 167h2v1h-2zM78 167h2v1h-2zM90 167h2v1h-2zM94 167h2v1h-2zM98 167h2v1h-2zM108 167h2v1h-2zM122 167h2v1h-2zM126 167h2v1h-2zM130 167h2v1h-2zM134 167h2v1h-2zM138 167h2v1h-2zM142 167h2v1h-2zM154 167h2v1h-2zM158 167h2v1h-2zM162 167h2v1h-2zM178 167h2v1h-2zM182 167h2v1h-2zM186 167h2v1h-2zM190 167h2v1h-2zM194 167h6v1h-6zM210 167h2v1h-2zM214 167h2v1h-2zM218 167h2v1h-2zM222 167h2v1h-2zM228 167h2v1h-2zM234 167h2v1h-2zM238 167h2v1h-2zM252 167h2v1h-2zM30 168h2v1h-2zM44 168h2v1h-2zM50 168h2v1h-2zM54 168h2v1h-2zM58 168h2v1h-2zM62 168h2v1h-2zM66 168h2v1h-2zM70 168h2v1h-2zM74 168h6v1h-6zM90 168h2v1h-2zM94 168h2v1h-2zM98 168h6v1h-6zM108 168h2v1h-2zM122 168h2v1h-2zM126 168h2v1h-2zM130 168h2v1h-2zM134 168h2v1h-2zM138 168h2v1h-2zM142 168h2v1h-2zM154 168h4v1h-4zM162 168h6v1h-6zM178 168h2v1h-2zM182 168h2v1h-2zM186 168h4v1h-4zM194 168h2v1h-2zM198 168h2v1h-2zM210 168h4v1h-4zM218 168h2v1h-2zM222 168h2v1h-2zM228 168h2v1h-2zM234 168h2v1h-2zM238 168h2v1h-2zM250 168h2v1h-2zM30 169h2v1h-2zM44 169h2v1h-2zM50 169h2v1h-2zM54 169h2v1h-2zM58 169h2v1h-2zM62 169h2v1h-2zM66 169h2v1h-2zM70 169h2v1h-2zM74 169h6v1h-6zM90 169h2v1h-2zM94 169h2v1h-2zM98 169h6v1h-6zM108 169h2v1h-2zM122 169h2v1h-2zM126 169h2v1h-2zM130 169h2v1h-2zM134 169h2v1h-2zM138 169h2v1h-2zM142 169h2v1h-2zM154 169h4v1h-4zM162 169h6v1h-6zM178 169h2v1h-2zM182 169h2v1h-2zM186 169h4v1h-4zM194 169h2v1h-2zM198 169h2v1h-2zM210 169h4v1h-4zM218 169h2v1h-2zM222 169h2v1h-2zM228 169h2v1h-2zM234 169h2v1h-2zM238 169h2v1h-2zM250 169h2v1h-2z"/><path fill="currentColor" opacity="0.45" d="M99 72h3v1h-3zM105 72h3v1h-3zM99 73h3v1h-3zM105 73h3v1h-3zM99 74h3v1h-3zM105 74h3v1h-3zM99 81h3v1h-3zM105 81h3v1h-3zM99 82h3v1h-3zM105 82h3v1h-3zM99 83h3v1h-3zM105 83h3v1h-3zM99 90h3v1h-3zM105 90h3v1h-3zM135 90h33v1h-33zM99 91h3v1h-3zM105 91h3v1h-3zM135 91h33v1h-33zM99 92h3v1h-3zM105 92h3v1h-3zM135 92h33v1h-33zM135 93h33v1h-33zM135 94h33v1h-33zM135 95h33v1h-33zM48 114h3v1h-3zM54 114h3v1h-3zM60 114h3v1h-3zM66 114h24v1h-24zM111 114h3v1h-3zM117 114h54v1h-54zM192 114h27v1h-27zM222 114h3v1h-3zM228 114h3v1h-3zM234 114h3v1h-3zM48 115h3v1h-3zM54 115h3v1h-3zM60 115h3v1h-3zM66 115h24v1h-24zM111 115h3v1h-3zM117 115h54v1h-54zM192 115h27v1h-27zM222 115h3v1h-3zM228 115h3v1h-3zM234 115h3v1h-3zM48 116h3v1h-3zM54 116h3v1h-3zM60 116h3v1h-3zM66 116h24v1h-24zM111 116h3v1h-3zM117 116h54v1h-54zM192 116h27v1h-27zM222 116h3v1h-3zM228 116h3v1h-3zM234 116h3v1h-3z"/></svg>