<svg xmlns="http://www.w3.org/2000/svg" viewBox="0 0 141 12" shape-rendering="crispEdges"><path fill="#ff5a1f" d="M121 0h9v1h-9zM133 0h5v1h-5zM121 1h9v1h-9zM133 1h5v1h-5zM121 2h9v1h-9zM133 2h5v1h-5zM121 3h3v1h-3zM127 3h3v1h-3zM135 3h3v1h-3zM121 4h3v1h-3zM127 4h3v1h-3zM135 4h3v1h-3zM121 5h3v1h-3zM127 5h3v1h-3zM135 5h3v1h-3zM121 6h3v1h-3zM127 6h3v1h-3zM135 6h3v1h-3zM121 7h3v1h-3zM127 7h3v1h-3zM135 7h3v1h-3zM121 8h3v1h-3zM127 8h3v1h-3zM135 8h3v1h-3zM113 9h3v1h-3zM121 9h3v1h-3zM127 9h3v1h-3zM135 9h3v1h-3zM113 10h3v1h-3zM121 10h3v1h-3zM127 10h3v1h-3zM132 10h9v1h-9zM113 11h3v1h-3zM121 11h3v1h-3zM127 11h3v1h-3zM132 11h9v1h-9z"/><path fill="currentColor" d="M0 0h3v1h-3zM6 0h3v1h-3zM11 0h9v1h-9zM23 0h8v1h-8zM34 0h8v1h-8zM44 0h9v1h-9zM55 0h2v1h-2zM62 0h2v1h-2zM67 0h8v1h-8zM77 0h9v1h-9zM88 0h9v1h-9zM99 0h9v1h-9zM0 1h3v1h-3zM6 1h3v1h-3zM11 1h9v1h-9zM23 1h8v1h-8zM34 1h8v1h-8zM44 1h9v1h-9zM55 1h2v1h-2zM62 1h2v1h-2zM67 1h8v1h-8zM77 1h9v1h-9zM88 1h9v1h-9zM99 1h9v1h-9zM0 2h3v1h-3zM6 2h3v1h-3zM11 2h9v1h-9zM23 2h8v1h-8zM34 2h8v1h-8zM44 2h9v1h-9zM55 2h2v1h-2zM62 2h2v1h-2zM67 2h8v1h-8zM77 2h9v1h-9zM88 2h9v1h-9zM99 2h9v1h-9zM0 3h3v1h-3zM6 3h3v1h-3zM11 3h3v1h-3zM28 3h3v1h-3zM39 3h3v1h-3zM44 3h3v1h-3zM50 3h3v1h-3zM55 3h2v1h-2zM62 3h2v1h-2zM72 3h3v1h-3zM77 3h3v1h-3zM83 3h3v1h-3zM88 3h3v1h-3zM94 3h3v1h-3zM99 3h3v1h-3zM105 3h3v1h-3zM0 4h3v1h-3zM6 4h3v1h-3zM11 4h3v1h-3zM28 4h3v1h-3zM39 4h3v1h-3zM44 4h3v1h-3zM50 4h3v1h-3zM55 4h2v1h-2zM59 4h1v1h-1zM62 4h2v1h-2zM72 4h3v1h-3zM77 4h3v1h-3zM83 4h3v1h-3zM88 4h3v1h-3zM94 4h3v1h-3zM99 4h3v1h-3zM105 4h3v1h-3zM0 5h3v1h-3zM6 5h3v1h-3zM11 5h3v1h-3zM22 5h9v1h-9zM33 5h9v1h-9zM44 5h9v1h-9zM55 5h2v1h-2zM59 5h1v1h-1zM62 5h2v1h-2zM66 5h9v1h-9zM77 5h9v1h-9zM88 5h9v1h-9zM99 5h3v1h-3zM105 5h3v1h-3zM1 6h3v1h-3zM5 6h3v1h-3zM11 6h3v1h-3zM22 6h9v1h-9zM33 6h9v1h-9zM44 6h9v1h-9zM55 6h2v1h-2zM59 6h1v1h-1zM62 6h2v1h-2zM66 6h9v1h-9zM77 6h9v1h-9zM88 6h9v1h-9zM99 6h3v1h-3zM105 6h3v1h-3zM1 7h3v1h-3zM5 7h3v1h-3zM11 7h3v1h-3zM22 7h9v1h-9zM33 7h9v1h-9zM44 7h9v1h-9zM55 7h2v1h-2zM59 7h1v1h-1zM62 7h2v1h-2zM66 7h9v1h-9zM77 7h9v1h-9zM88 7h9v1h-9zM99 7h3v1h-3zM105 7h3v1h-3zM2 8h5v1h-5zM11 8h3v1h-3zM22 8h3v1h-3zM28 8h3v1h-3zM33 8h3v1h-3zM39 8h3v1h-3zM50 8h3v1h-3zM55 8h2v1h-2zM59 8h1v1h-1zM62 8h2v1h-2zM66 8h3v1h-3zM72 8h3v1h-3zM83 8h3v1h-3zM88 8h3v1h-3zM99 8h3v1h-3zM105 8h3v1h-3zM2 9h5v1h-5zM11 9h3v1h-3zM22 9h3v1h-3zM28 9h3v1h-3zM33 9h3v1h-3zM39 9h3v1h-3zM50 9h3v1h-3zM55 9h2v1h-2zM59 9h1v1h-1zM62 9h2v1h-2zM66 9h3v1h-3zM72 9h3v1h-3zM83 9h3v1h-3zM88 9h3v1h-3zM99 9h3v1h-3zM105 9h3v1h-3zM3 10h3v1h-3zM11 10h3v1h-3zM22 10h9v1h-9zM33 10h9v1h-9zM44 10h9v1h-9zM55 10h9v1h-9zM66 10h9v1h-9zM77 10h9v1h-9zM88 10h9v1h-9zM99 10h3v1h-3zM105 10h3v1h-3zM3 11h3v1h-3zM11 11h3v1h-3zM22 11h9v1h-9zM33 11h9v1h-9zM44 11h9v1h-9zM55 11h9v1h-9zM66 11h9v1h-9zM77 11h9v1h-9zM88 11h9v1h-9zM99 11h3v1h-3zM105 11h3v1h-3z"/></svg>